<svg width="170" height="170" viewBox="0 0 170 170" fill="none" xmlns="http://www.w3.org/2000/svg">
<g clip-path="url(#clip0_373_722)">
<path d="M21.9605 134.93C19.5712 134.93 17.6085 134.375 16.0725 133.266C14.6218 132.156 13.6832 130.663 13.2565 128.786C12.9152 126.908 13.2992 124.818 14.4085 122.514L47.1765 50.7058C48.5418 47.8045 50.1632 45.7138 52.0405 44.4338C53.9178 43.0685 56.0938 42.3858 58.5685 42.3858C61.0432 42.3858 63.2192 43.0685 65.0965 44.4338C66.9738 45.7138 68.5525 47.8045 69.8325 50.7058L102.857 122.514C103.966 124.818 104.35 126.951 104.009 128.914C103.753 130.791 102.899 132.284 101.449 133.394C99.9978 134.418 98.1205 134.93 95.8165 134.93C92.9152 134.93 90.6538 134.247 89.0325 132.882C87.4965 131.516 86.1312 129.383 84.9365 126.482L77.2565 108.69L85.1925 114.194H31.8165L39.7525 108.69L32.2005 126.482C30.9205 129.468 29.5552 131.644 28.1045 133.01C26.7392 134.29 24.6912 134.93 21.9605 134.93ZM58.3125 64.6578L41.9285 103.698L38.4725 98.7058H78.5365L75.0805 103.698L58.5685 64.6578H58.3125Z" fill="white"/>
</g>
<path d="M83.7541 130C80.4261 130 77.8661 129.104 76.0741 127.312C74.2821 125.52 73.3861 122.96 73.3861 119.632V50.128C73.3861 46.8 74.2821 44.24 76.0741 42.448C77.8661 40.656 80.4261 39.76 83.7541 39.76H108.714C124.159 39.76 136.063 43.6853 144.426 51.536C152.874 59.3013 157.098 70.3947 157.098 84.816C157.098 92.0693 155.989 98.512 153.77 104.144C151.637 109.691 148.522 114.384 144.426 118.224C140.33 122.064 135.295 125.008 129.322 127.056C123.349 129.019 116.479 130 108.714 130H83.7541ZM93.2261 113.744H107.562C112.426 113.744 116.65 113.147 120.234 111.952C123.818 110.757 126.805 108.965 129.194 106.576C131.583 104.187 133.375 101.2 134.57 97.616C135.765 93.9467 136.362 89.68 136.362 84.816C136.362 75.088 133.93 67.8773 129.066 63.184C124.287 58.4053 117.119 56.016 107.562 56.016H93.2261V113.744Z" fill="#1E478A"/>
<path d="M80.5854 121.487L80.8685 121.934L79.5372 122.712L80.8685 123.475L80.5751 123.936L78.9772 122.944V122.484L80.5854 121.487ZM83.4833 123.169C83.4833 123.346 83.4368 123.502 83.3438 123.637C83.2521 123.772 83.1202 123.878 82.9479 123.955C82.7756 124.031 82.5684 124.07 82.3263 124.07C82.0583 124.07 81.8333 124.031 81.6515 123.953C81.4709 123.874 81.3212 123.776 81.2022 123.659L81.5427 123.282C81.648 123.374 81.7643 123.445 81.8915 123.495C82.0186 123.545 82.1581 123.569 82.3099 123.569C82.4508 123.569 82.565 123.539 82.6525 123.479C82.74 123.417 82.7838 123.331 82.7838 123.221C82.7838 123.117 82.7468 123.035 82.673 122.976C82.6005 122.918 82.4651 122.858 82.2668 122.798C81.9345 122.697 81.698 122.578 81.5571 122.441C81.4176 122.303 81.3479 122.126 81.3479 121.91C81.3479 121.736 81.3957 121.588 81.4915 121.465C81.5886 121.342 81.7185 121.248 81.8812 121.184C82.0439 121.118 82.2231 121.085 82.4186 121.085C82.6388 121.085 82.833 121.117 83.0012 121.182C83.1694 121.244 83.3151 121.335 83.4381 121.452L83.1202 121.817C83.0245 121.737 82.9212 121.677 82.8104 121.639C82.6997 121.599 82.5868 121.579 82.472 121.579C82.3434 121.579 82.2402 121.603 82.1622 121.651C82.0843 121.698 82.0453 121.767 82.0453 121.858C82.0453 121.919 82.0624 121.969 82.0966 122.01C82.1308 122.051 82.1903 122.09 82.2751 122.127C82.3598 122.163 82.4774 122.204 82.6279 122.252C82.807 122.307 82.9602 122.373 83.0874 122.449C83.2159 122.524 83.3137 122.619 83.3807 122.734C83.4491 122.849 83.4833 122.994 83.4833 123.169ZM84.6472 124.459L84.1405 124.228L85.8656 120.648L86.3682 120.88L86.2062 121.216L88.2513 122.48V122.944L86.6533 123.936L86.36 123.495L87.6933 122.712L85.9723 121.705L84.6472 124.459Z" fill="#F6F6F6"/>
<defs>
<clipPath id="clip0_373_722">
<rect width="77.5439" height="166.222" fill="white" transform="translate(0 3.77783)"/>
</clipPath>
</defs>
</svg>
